<?xml version="1.0" encoding="UTF-8" standalone="no"?>
<!-- Created with Inkscape (http://www.inkscape.org/) -->

<svg
   xmlns:dc="http://purl.org/dc/elements/1.1/"
   xmlns:cc="http://creativecommons.org/ns#"
   xmlns:rdf="http://www.w3.org/1999/02/22-rdf-syntax-ns#"
   xmlns:svg="http://www.w3.org/2000/svg"
   xmlns="http://www.w3.org/2000/svg"
   xmlns:sodipodi="http://sodipodi.sourceforge.net/DTD/sodipodi-0.dtd"
   xmlns:inkscape="http://www.inkscape.org/namespaces/inkscape"
   width="291.25mm"
   height="202.5mm"
   viewBox="0 0 291.25 202.5"
   version="1.1"
   id="svg4546"
   inkscape:version="0.92.4 (5da689c313, 2019-01-14)"
   sodipodi:docname="hospital bin2.svg">
  <defs
     id="defs4540" />
  <sodipodi:namedview
     id="base"
     pagecolor="#ffffff"
     bordercolor="#666666"
     borderopacity="1.0"
     inkscape:pageopacity="0.0"
     inkscape:pageshadow="2"
     inkscape:zoom="0.7"
     inkscape:cx="634.96145"
     inkscape:cy="320.74779"
     inkscape:document-units="mm"
     inkscape:current-layer="layer1"
     showgrid="false"
     inkscape:window-width="1366"
     inkscape:window-height="705"
     inkscape:window-x="-8"
     inkscape:window-y="-8"
     inkscape:window-maximized="1" />
  <metadata
     id="metadata4543">
    <rdf:RDF>
      <cc:Work
         rdf:about="">
        <dc:format>image/svg+xml</dc:format>
        <dc:type
           rdf:resource="http://purl.org/dc/dcmitype/StillImage" />
        <dc:title />
      </cc:Work>
    </rdf:RDF>
  </metadata>
  <g
     inkscape:label="Layer 1"
     inkscape:groupmode="layer"
     id="layer1"
     transform="translate(8.7499895,-94.5)">
    <path
       style="color:#000000;font-style:normal;font-variant:normal;font-weight:normal;font-stretch:normal;font-size:medium;line-height:normal;font-family:sans-serif;font-variant-ligatures:normal;font-variant-position:normal;font-variant-caps:normal;font-variant-numeric:normal;font-variant-alternates:normal;font-feature-settings:normal;text-indent:0;text-align:start;text-decoration:none;text-decoration-line:none;text-decoration-style:solid;text-decoration-color:#000000;letter-spacing:normal;word-spacing:normal;text-transform:none;writing-mode:lr-tb;direction:ltr;text-orientation:mixed;dominant-baseline:auto;baseline-shift:baseline;text-anchor:start;white-space:normal;shape-padding:0;clip-rule:nonzero;display:inline;overflow:visible;visibility:visible;opacity:1;isolation:auto;mix-blend-mode:normal;color-interpolation:sRGB;color-interpolation-filters:linearRGB;solid-color:#000000;solid-opacity:1;vector-effect:none;fill:#1a1a1a;fill-opacity:1;fill-rule:nonzero;stroke:none;stroke-width:9.44881916;stroke-linecap:round;stroke-linejoin:round;stroke-miterlimit:4;stroke-dasharray:none;stroke-dashoffset:0;stroke-opacity:1;paint-order:markers fill stroke;color-rendering:auto;image-rendering:auto;shape-rendering:auto;text-rendering:auto;enable-background:accumulate"
       d="M 37.794922 -2.4902344 C 34.017764 -2.4900171 30.580296 0.94745186 30.580078 4.7246094 L 30.580078 42.519531 A 2.4897356 2.4897356 0 0 0 33.070312 45.009766 L 42.519531 45.009766 A 2.4897356 2.4897356 0 0 0 45.009766 42.519531 L 45.009766 11.939453 L 295.14844 11.939453 L 295.14844 42.519531 A 2.4897356 2.4897356 0 0 0 297.63867 45.009766 L 307.08594 45.009766 A 2.4897356 2.4897356 0 0 0 309.57617 42.519531 L 309.57617 11.939453 L 673.09961 11.939453 L 673.09961 186.48633 L 309.57617 186.48633 L 309.57617 155.90625 A 2.4897356 2.4897356 0 0 0 307.08594 153.41602 L 297.63867 153.41602 A 2.4897356 2.4897356 0 0 0 295.14844 155.90625 L 295.14844 193.70117 L 295.14844 212.98633 A 2.4897356 2.4897356 0 0 0 297.63867 215.47656 L 307.08594 215.47656 A 2.4897356 2.4897356 0 0 0 309.57617 212.98633 L 309.57617 200.91602 L 680.31445 200.91602 C 684.09161 200.9158 687.52908 197.47833 687.5293 193.70117 L 687.5293 4.7246094 C 687.52908 0.94745186 684.09161 -2.4900171 680.31445 -2.4902344 L 302.36133 -2.4902344 L 37.794922 -2.4902344 z M 33.070312 153.41602 A 2.4897356 2.4897356 0 0 0 30.580078 155.90625 L 30.580078 382.76562 L 30.580078 571.56445 L 30.580078 571.6543 C 30.580295 575.43145 34.017764 578.86892 37.794922 578.86914 L 302.36133 578.86914 C 306.13849 578.86892 309.57595 575.43145 309.57617 571.6543 L 309.57617 571.56445 L 309.57617 382.76562 L 309.57617 382.58789 L 309.57617 269.38086 L 309.57617 250.78125 A 2.4897356 2.4897356 0 0 0 307.08594 248.29102 L 297.63867 248.29102 A 2.4897356 2.4897356 0 0 0 295.14844 250.78125 L 295.14844 262.07617 L 189.09375 262.07617 C 187.72393 262.07617 186.13894 262.48301 184.76562 263.48242 C 183.18885 264.63022 181.76172 266.64833 181.76172 269.38086 L 181.76172 307.08594 A 2.4897356 2.4897356 0 0 0 184.25195 309.57617 L 193.70117 309.57617 A 2.4897356 2.4897356 0 0 0 196.19141 307.08594 L 196.19141 276.50586 L 295.14844 276.50586 L 295.14844 375.46289 L 196.19141 375.46289 L 196.19141 344.88281 A 2.4897356 2.4897356 0 0 0 193.70117 342.39258 L 184.25195 342.39258 A 2.4897356 2.4897356 0 0 0 181.76172 344.88281 L 181.76172 375.46289 L 151.18164 375.46289 A 2.4897356 2.4897356 0 0 0 148.69141 377.95312 L 148.69141 387.40234 A 2.4897356 2.4897356 0 0 0 151.18164 389.89258 L 295.14844 389.89258 L 295.14844 564.43945 L 45.009766 564.43945 L 45.009766 389.89258 L 75.589844 389.89258 A 2.4897356 2.4897356 0 0 0 78.080078 387.40234 L 78.080078 377.95312 A 2.4897356 2.4897356 0 0 0 75.589844 375.46289 L 45.009766 375.46289 L 45.009766 155.90625 A 2.4897356 2.4897356 0 0 0 42.519531 153.41602 L 33.070312 153.41602 z M 831.49609 186.48633 C 827.71894 186.48655 824.28147 189.92401 824.28125 193.70117 L 824.28125 193.78906 L 824.28125 382.58789 L 824.28125 458.26758 A 2.4897356 2.4897356 0 0 0 826.77148 460.75781 L 836.2207 460.75781 A 2.4897356 2.4897356 0 0 0 838.71094 458.26758 L 838.71094 389.89258 L 982.67773 389.89258 A 2.4897356 2.4897356 0 0 0 985.16797 387.40234 L 985.16797 377.95312 A 2.4897356 2.4897356 0 0 0 982.67773 375.46289 L 838.71094 375.46289 L 838.71094 200.91602 L 1088.8477 200.91602 L 1088.8477 375.46289 L 1058.2676 375.46289 A 2.4897356 2.4897356 0 0 0 1055.7773 377.95312 L 1055.7773 387.40234 A 2.4897356 2.4897356 0 0 0 1058.2676 389.89258 L 1088.8477 389.89258 L 1088.8477 640.0293 L 1058.2676 640.0293 A 2.4897356 2.4897356 0 0 0 1055.7773 642.51953 L 1055.7773 651.96875 A 2.4897356 2.4897356 0 0 0 1058.2676 654.45898 L 1088.8477 654.45898 L 1088.8477 753.41602 L 989.89258 753.41602 L 989.89258 654.45898 L 1020.4727 654.45898 A 2.4897356 2.4897356 0 0 0 1022.9629 651.96875 L 1022.9629 642.51953 A 2.4897356 2.4897356 0 0 0 1020.4727 640.0293 L 982.79492 640.0293 C 981.42509 640.0293 979.84011 640.43611 978.4668 641.43555 A 2.4897356 2.4897356 0 0 0 978.4668 641.4375 C 976.89187 642.58397 975.46291 644.5995 975.46289 647.33203 L 975.46289 753.41602 L 838.71094 753.41602 L 838.71094 685.03906 L 824.28125 685.03906 L 824.28125 753.41602 L 460.75781 753.41602 L 460.75781 722.83398 A 2.4897356 2.4897356 0 0 0 458.26758 720.34375 L 448.81836 720.34375 A 2.4897356 2.4897356 0 0 0 446.32812 722.83398 L 446.32812 760.63086 A 2.4897356 2.4897356 0 0 0 446.32812 760.63281 C 446.3299 764.40898 449.7668 767.84353 453.54297 767.84375 L 831.49609 767.84375 L 1096.0625 767.84375 C 1099.8387 767.84353 1103.2756 764.40897 1103.2773 760.63281 A 2.4897356 2.4897356 0 0 0 1103.2773 760.63086 L 1103.2773 760.54102 L 1103.2773 647.33203 L 1103.2773 382.58789 L 1103.2773 193.78906 L 1103.2773 193.70117 C 1103.2771 189.92402 1099.8397 186.48655 1096.0625 186.48633 L 831.49609 186.48633 z M 453.66211 299.87109 C 452.28889 299.87109 450.70486 300.2802 449.33203 301.2793 A 2.4897356 2.4897356 0 0 0 449.33203 301.28125 C 447.75708 302.42772 446.32813 304.44324 446.32812 307.17578 L 446.32812 382.67773 A 2.4897356 2.4897356 0 0 0 448.81836 385.16797 L 458.26758 385.16797 A 2.4897356 2.4897356 0 0 0 460.75781 382.67773 L 460.75781 314.30078 L 559.71484 314.30078 L 559.71484 344.88281 A 2.4897356 2.4897356 0 0 0 562.20508 347.37305 L 571.6543 347.37305 A 2.4897356 2.4897356 0 0 0 574.14453 344.88281 L 574.14453 314.30078 L 673.09961 314.30078 L 673.09961 413.25781 L 574.14453 413.25781 L 574.14453 382.67773 A 2.4897356 2.4897356 0 0 0 571.6543 380.1875 L 562.20508 380.1875 A 2.4897356 2.4897356 0 0 0 559.71484 382.67773 L 559.71484 420.38477 C 559.71484 423.1173 561.14381 425.13282 562.71875 426.2793 A 2.4897356 2.4897356 0 0 0 562.71875 426.28125 C 564.09228 427.28109 565.67735 427.6875 567.04688 427.6875 L 673.09961 427.6875 L 673.09961 488.84766 L 642.51953 488.84766 A 2.4897356 2.4897356 0 0 0 640.0293 491.33789 L 640.0293 500.78711 A 2.4897356 2.4897356 0 0 0 642.51953 503.27734 L 680.19727 503.27734 C 681.56709 503.27734 683.15207 502.87052 684.52539 501.87109 C 686.10035 500.72462 687.5293 498.70715 687.5293 495.97461 L 687.5293 420.38477 L 687.5293 307.17578 C 687.5293 304.44324 686.10032 302.42772 684.52539 301.28125 C 683.15364 300.28269 681.57015 299.87109 680.19727 299.87109 L 453.66211 299.87109 z M 448.81836 455.77734 A 2.4897356 2.4897356 0 0 0 446.32812 458.26758 L 446.32812 495.97461 C 446.32813 498.70651 447.75746 500.72252 449.33203 501.86914 C 450.7069 502.87 452.29261 503.27734 453.66211 503.27734 L 604.72461 503.27734 A 2.4897356 2.4897356 0 0 0 607.21484 500.78711 L 607.21484 491.33789 A 2.4897356 2.4897356 0 0 0 604.72461 488.84766 L 460.75781 488.84766 L 460.75781 458.26758 A 2.4897356 2.4897356 0 0 0 458.26758 455.77734 L 448.81836 455.77734 z M 826.77148 493.57227 A 2.4897356 2.4897356 0 0 0 824.28125 496.0625 L 824.28125 564.43945 L 453.54297 564.43945 C 449.76581 564.43967 446.32834 567.87714 446.32812 571.6543 L 446.32812 609.44922 A 2.4897356 2.4897356 0 0 0 448.81836 611.93945 L 458.26758 611.93945 A 2.4897356 2.4897356 0 0 0 460.75781 609.44922 L 460.75781 578.86914 L 824.28125 578.86914 L 824.28125 647.24414 L 838.71094 647.24414 L 838.71094 571.6543 L 838.71094 496.0625 A 2.4897356 2.4897356 0 0 0 836.2207 493.57227 L 826.77148 493.57227 z "
       transform="matrix(0.26458333,0,0,0.26458333,-8.7499895,94.5)"
       id="path4520" />
  </g>
</svg>
