<?xml version="1.0" encoding="UTF-8" standalone="no"?>
<!-- Created with Inkscape (http://www.inkscape.org/) -->

<svg
   xmlns:dc="http://purl.org/dc/elements/1.1/"
   xmlns:cc="http://creativecommons.org/ns#"
   xmlns:rdf="http://www.w3.org/1999/02/22-rdf-syntax-ns#"
   xmlns:svg="http://www.w3.org/2000/svg"
   xmlns="http://www.w3.org/2000/svg"
   xmlns:sodipodi="http://sodipodi.sourceforge.net/DTD/sodipodi-0.dtd"
   xmlns:inkscape="http://www.inkscape.org/namespaces/inkscape"
   width="291.25mm"
   height="202.5mm"
   viewBox="0 0 291.25 202.5"
   version="1.1"
   id="svg4546"
   inkscape:version="0.92.4 (5da689c313, 2019-01-14)"
   sodipodi:docname="hospital floor.svg">
  <defs
     id="defs4540" />
  <sodipodi:namedview
     id="base"
     pagecolor="#ffffff"
     bordercolor="#666666"
     borderopacity="1.0"
     inkscape:pageopacity="0.0"
     inkscape:pageshadow="2"
     inkscape:zoom="0.98994949"
     inkscape:cx="477.90456"
     inkscape:cy="480.7718"
     inkscape:document-units="mm"
     inkscape:current-layer="layer1"
     showgrid="false"
     inkscape:window-width="1366"
     inkscape:window-height="705"
     inkscape:window-x="-8"
     inkscape:window-y="-8"
     inkscape:window-maximized="1" />
  <metadata
     id="metadata4543">
    <rdf:RDF>
      <cc:Work
         rdf:about="">
        <dc:format>image/svg+xml</dc:format>
        <dc:type
           rdf:resource="http://purl.org/dc/dcmitype/StillImage" />
        <dc:title></dc:title>
      </cc:Work>
    </rdf:RDF>
  </metadata>
  <g
     inkscape:label="Layer 1"
     inkscape:groupmode="layer"
     id="layer1"
     transform="translate(8.7499895,-94.5)">
    <path
       style="opacity:1;fill:#93a8ff;fill-opacity:1;stroke:none;stroke-width:9.44881916;stroke-linecap:round;stroke-linejoin:round;stroke-miterlimit:4;stroke-dasharray:none;stroke-opacity:1;paint-order:markers fill stroke"
       d="M 37.794922 4.7246094 L 37.794922 382.76367 L 37.794922 571.56641 L 37.794922 571.6543 L 302.36133 571.6543 L 302.36133 571.56641 L 302.36133 382.76367 L 302.36133 382.58984 L 302.36133 269.37695 L 302.36133 193.70117 L 680.31445 193.70117 L 680.31445 4.7246094 L 302.36133 4.7246094 L 37.794922 4.7246094 z M 653.66406 29.792969 C 654.01268 29.828649 654.18204 29.787116 654.51953 29.816406 L 654.51953 29.835938 L 653.66406 29.792969 z M 327.88281 29.904297 L 654.51953 29.904297 L 654.51953 167.64453 L 327.88281 167.64453 L 327.88281 29.904297 z M 276.6582 30.246094 L 276.6582 217.99219 C 276.66573 217.80418 276.6697 217.62017 276.67773 217.43164 L 276.6582 218.34766 L 276.6582 217.99219 C 276.28613 227.28991 276.52859 235.96011 276.62891 243.66797 C 246.38452 243.86963 216.13866 244.07106 185.89453 244.27344 A 21.532005 21.532005 0 0 0 164.50977 265.6582 C 164.36481 287.35138 164.21887 309.04617 164.07422 330.74023 C 164.0829 330.55424 164.08847 330.37204 164.09766 330.18555 L 164.07227 331.10156 C 164.07307 330.98112 164.07342 330.86068 164.07422 330.74023 C 163.64026 340.03714 163.82627 348.71075 163.875 356.42188 L 88.980469 356.42188 C 89.167825 356.42941 89.351199 356.43335 89.539062 356.44141 L 88.617188 356.42188 L 88.980469 356.42188 C 79.734474 356.0498 71.104327 356.29038 63.433594 356.39258 L 63.433594 30.339844 L 251.47461 30.339844 C 245.67624 30.698468 265.95972 30.484214 276.6582 30.246094 z M 831.49609 193.70117 L 831.49609 193.78711 L 831.49609 382.58984 L 831.49609 571.6543 L 453.54297 571.6543 L 453.54297 760.63086 L 831.49609 760.63086 L 1096.0625 760.63086 L 1096.0625 760.54297 L 1096.0625 647.33008 L 1096.0625 382.58984 L 1096.0625 193.78711 L 1096.0625 193.70117 L 1095.9453 193.70117 L 831.61523 193.70117 L 831.49609 193.70117 z M 1069.5156 218.81836 L 1069.5156 330.875 C 1069.5232 330.68764 1069.5271 330.50427 1069.5352 330.31641 L 1069.5156 331.23828 L 1069.5156 330.875 C 1069.1434 340.12099 1069.3841 348.75114 1069.4863 356.42188 L 883.26562 356.42188 C 883.45298 356.42941 883.63636 356.43335 883.82422 356.44141 L 882.90234 356.42188 L 883.26562 356.42188 C 874.01963 356.0498 865.38948 356.29038 857.71875 356.39258 L 857.71875 218.91211 L 1044.332 218.91211 C 1038.5337 219.27078 1058.8171 219.05649 1069.5156 218.81836 z M 276.6582 294.53125 L 276.6582 330.875 C 276.66574 330.68764 276.66968 330.50427 276.67773 330.31641 L 276.6582 331.23828 L 276.6582 330.875 C 276.28611 340.121 276.52671 348.75113 276.62891 356.42188 L 240.41016 356.42188 C 240.59752 356.42941 240.78089 356.43335 240.96875 356.44141 L 240.04688 356.42188 L 240.41016 356.42188 C 231.16405 356.04979 222.53259 356.29038 214.86133 356.39258 L 214.86133 294.62695 L 251.47461 294.62695 C 245.67691 294.98662 265.96023 294.77035 276.6582 294.53125 z M 453.66211 307.08594 C 453.59636 307.08594 453.54297 307.12597 453.54297 307.17383 L 453.54297 495.97656 C 453.54297 496.02442 453.59636 496.0625 453.66211 496.0625 L 680.19727 496.0625 C 680.26301 496.0625 680.31445 496.02442 680.31445 495.97656 L 680.31445 307.17383 C 680.31445 307.12597 680.26301 307.08594 680.19727 307.08594 L 453.66211 307.08594 z M 653.80078 333.10352 L 653.80078 369.44727 C 653.80832 369.25991 653.81226 369.07654 653.82031 368.88867 L 653.80078 369.81055 L 653.80078 369.44727 C 653.4287 378.69327 653.66929 387.32341 653.77148 394.99414 L 618.98047 394.99414 C 619.16781 395.00168 619.35122 395.00562 619.53906 395.01367 L 618.61719 394.99414 L 618.98047 394.99414 C 609.73533 394.62199 601.10439 394.86117 593.43359 394.96289 L 593.43359 333.19727 L 628.61719 333.19727 C 622.81873 333.5559 643.1022 333.34167 653.80078 333.10352 z M 479.14844 333.19727 L 540.96094 333.19727 C 541.36104 362.1982 539.52928 393.04083 542.52539 425.11523 A 21.532005 21.532005 0 0 0 562.22266 444.57227 C 593.71823 447.1257 624.21696 445.99891 653.54883 446.00391 C 653.59958 446.4294 653.70139 446.91593 653.77539 447.37305 C 653.52558 455.77066 653.67778 463.6721 653.77148 470.70898 L 504.69531 470.70898 C 504.88265 470.71653 505.06606 470.72046 505.25391 470.72852 L 504.33203 470.70898 L 504.69531 470.70898 C 495.45017 470.33684 486.81922 470.57602 479.14844 470.67773 L 479.14844 333.19727 z M 276.6582 408.81836 L 276.6582 520.875 C 276.66574 520.68764 276.66968 520.50427 276.67773 520.31641 L 276.6582 521.23828 L 276.6582 520.875 C 276.28611 530.121 276.52671 538.75113 276.62891 546.42188 L 88.980469 546.42188 C 89.167826 546.42941 89.351199 546.43335 89.539062 546.44141 L 88.617188 546.42188 L 88.980469 546.42188 C 79.73446 546.04979 71.104326 546.29038 63.433594 546.39258 L 63.433594 408.91211 L 251.47461 408.91211 C 245.67623 409.27078 265.95971 409.05649 276.6582 408.81836 z M 1069.5156 408.81836 L 1069.5156 620.63086 C 1067.5614 620.71492 1066.159 620.67338 1064.0938 620.81055 C 1064.1689 620.80822 1064.2452 620.80706 1064.3203 620.80469 L 1063.0957 620.87891 C 1063.4647 620.84613 1063.7657 620.83234 1064.0938 620.81055 C 1037.2432 621.64274 1008.0092 619.6363 977.4668 622.99023 A 21.532005 21.532005 0 0 0 958.43359 641.88086 C 955.62383 665.81625 957.12929 688.84036 956.68164 709.3125 L 956.68164 709.33789 C 956.29985 718.6256 956.53959 727.29243 956.63867 734.99414 L 883.26562 734.99414 C 883.45296 735.00168 883.63637 735.00562 883.82422 735.01367 L 882.90234 734.99414 L 883.26562 734.99414 C 874.02049 734.622 865.38953 734.86117 857.71875 734.96289 L 857.71875 408.91211 L 1044.332 408.91211 C 1038.5337 409.27078 1058.8171 409.05649 1069.5156 408.81836 z M 805.23047 597.38867 L 805.23047 709.44727 C 805.23801 709.25993 805.24195 709.07652 805.25 708.88867 L 805.23047 709.81055 L 805.23047 709.44727 C 804.85832 718.69241 805.0975 727.32336 805.19922 734.99414 L 504.69531 734.99414 C 504.88265 735.00168 505.06606 735.00562 505.25391 735.01367 L 504.33203 734.99414 L 504.69531 734.99414 C 495.45018 734.622 486.81922 734.86117 479.14844 734.96289 L 479.14844 597.48242 L 780.04688 597.48242 C 774.24849 597.84109 794.53197 597.6268 805.23047 597.38867 z M 1069.5156 673.10352 L 1069.5156 709.44727 C 1069.5232 709.25991 1069.5271 709.07654 1069.5352 708.88867 L 1069.5156 709.81055 L 1069.5156 709.44727 C 1069.1434 718.69327 1069.3841 727.32342 1069.4863 734.99414 L 1034.6953 734.99414 C 1034.8827 735.00168 1035.0661 735.00562 1035.2539 735.01367 L 1034.332 734.99414 L 1034.6953 734.99414 C 1025.4502 734.62199 1016.8193 734.86117 1009.1484 734.96289 L 1009.1484 673.19727 L 1044.332 673.19727 C 1038.5337 673.55594 1058.8171 673.34164 1069.5156 673.10352 z "
       transform="matrix(0.26458333,0,0,0.26458333,-8.7499895,94.5)"
       id="path5391" />
    <path
       transform="matrix(0.26458333,0,0,0.26458333,-8.7499896,94.500001)"
       style="opacity:1;fill:#e0e0e0;fill-opacity:1;stroke:none;stroke-width:9.44881916;stroke-linecap:round;stroke-linejoin:round;stroke-miterlimit:4;stroke-dasharray:none;stroke-opacity:1;paint-order:markers fill stroke"
       d="m 653.66406,29.792969 0.85547,0.04297 v -0.01953 c -0.33749,-0.02929 -0.50685,0.01224 -0.85547,-0.02344 z M 327.88281,29.904297 V 167.64453 H 654.51953 V 29.904297 Z m -51.22461,0.341797 c -10.69848,0.23812 -30.98196,0.452374 -25.18359,0.09375 H 63.433594 V 356.39258 c 7.82617,-0.10427 16.646617,-0.35663 26.105468,0.0488 l -0.921874,-0.0195 H 163.875 c -0.0497,-7.8654 -0.24573,-16.72796 0.22266,-26.23633 l -0.0254,0.91601 c 0.14545,-21.8145 0.29174,-43.62975 0.4375,-65.44336 a 21.532005,21.532005 0 0 1 21.38476,-21.38476 c 30.24413,-0.20238 60.48999,-0.40381 90.73438,-0.60547 -0.10234,-7.86372 -0.35663,-16.72466 0.0488,-26.23633 l -0.0195,0.91602 z m 792.8574,188.572266 c -10.6985,0.23813 -30.9819,0.45237 -25.1836,0.0937 H 857.71875 v 137.48047 c 7.82617,-0.10427 16.64662,-0.35663 26.10547,0.0488 l -0.92188,-0.0195 h 186.58396 c -0.1043,-7.82617 -0.3566,-16.64662 0.049,-26.10547 l -0.02,0.92187 z m -792.8574,75.71289 c -10.69797,0.2391 -30.98129,0.45537 -25.18359,0.0957 h -36.61328 v 61.76563 c 7.82671,-0.10427 16.64851,-0.35664 26.10742,0.0488 l -0.92187,-0.0195 h 36.58203 c -0.10427,-7.82618 -0.35664,-16.64661 0.0488,-26.10547 l -0.0195,0.92187 z m 377.14258,38.57227 c -10.69858,0.23815 -30.98205,0.45233 -25.18359,0.0937 h -35.1836 v 61.76562 c 7.82623,-0.10378 16.64756,-0.35464 26.10547,0.0508 l -0.92187,-0.0195 h 35.15429 c -0.10427,-7.82617 -0.35663,-16.64661 0.0488,-26.10547 l -0.0195,0.92188 z m -174.65234,0.0937 v 137.48046 c 7.82622,-0.10378 16.64756,-0.35464 26.10547,0.0508 l -0.92188,-0.0195 h 149.43945 c -0.0937,-7.03688 -0.24581,-14.93832 0.004,-23.33593 -0.074,-0.45712 -0.17581,-0.94365 -0.22656,-1.36914 -29.33187,-0.005 -59.8306,1.12179 -91.32617,-1.43164 a 21.532005,21.532005 0 0 1 -19.69727,-19.45704 c -2.99611,-32.0744 -1.16435,-62.91703 -1.56445,-91.91796 z M 276.6582,408.81836 c -10.69849,0.23813 -30.98197,0.45237 -25.18359,0.0937 H 63.433594 v 137.48047 c 7.826169,-0.10427 16.646602,-0.35664 26.105468,0.0488 l -0.921874,-0.0195 H 276.62891 c -0.10427,-7.82618 -0.35664,-16.64661 0.0488,-26.10547 l -0.0195,0.92187 z m 792.8574,0 c -10.6985,0.23813 -30.9819,0.45237 -25.1836,0.0937 H 857.71875 v 326.05078 c 7.82622,-0.10378 16.64757,-0.35463 26.10547,0.0508 l -0.92188,-0.0195 h 73.73633 c -0.10072,-7.82885 -0.35069,-16.65139 0.0586,-26.11328 l -0.0156,0.45703 c 0.44942,-20.4784 -1.05896,-43.51189 1.75195,-67.45703 a 21.532005,21.532005 0 0 1 19.03321,-18.89063 c 30.6279,-3.36332 59.9412,-1.33501 86.8535,-2.18554 l -1.2246,0.0742 c 2.692,-0.23912 4.1553,-0.15064 6.4199,-0.24805 z M 805.23047,597.38867 c -10.6985,0.23813 -30.98198,0.45237 -25.18359,0.0937 H 479.14844 v 137.48047 c 7.82622,-0.10378 16.64757,-0.35463 26.10547,0.0508 l -0.92188,-0.0195 h 300.86719 c -0.10378,-7.82622 -0.35464,-16.64756 0.0508,-26.10547 l -0.0195,0.92188 z m 264.28513,75.71485 c -10.6985,0.23812 -30.9819,0.45237 -25.1836,0.0937 h -35.1836 v 61.76562 c 7.8263,-0.10378 16.6476,-0.35464 26.1055,0.0508 l -0.9219,-0.0195 h 35.1543 c -0.1043,-7.82616 -0.3566,-16.64661 0.049,-26.10547 l -0.02,0.92188 z"
       id="path5412" />
  </g>
</svg>
