<?xml version="1.0" encoding="UTF-8" standalone="no"?>
<!-- Created with Inkscape (http://www.inkscape.org/) -->

<svg
   xmlns:dc="http://purl.org/dc/elements/1.1/"
   xmlns:cc="http://creativecommons.org/ns#"
   xmlns:rdf="http://www.w3.org/1999/02/22-rdf-syntax-ns#"
   xmlns:svg="http://www.w3.org/2000/svg"
   xmlns="http://www.w3.org/2000/svg"
   xmlns:sodipodi="http://sodipodi.sourceforge.net/DTD/sodipodi-0.dtd"
   xmlns:inkscape="http://www.inkscape.org/namespaces/inkscape"
   width="291.25mm"
   height="202.5mm"
   viewBox="0 0 291.25 202.5"
   version="1.1"
   id="svg4546"
   inkscape:version="0.92.4 (5da689c313, 2019-01-14)"
   sodipodi:docname="hospital bin.svg">
  <defs
     id="defs4540" />
  <sodipodi:namedview
     id="base"
     pagecolor="#ffffff"
     bordercolor="#666666"
     borderopacity="1.0"
     inkscape:pageopacity="0.0"
     inkscape:pageshadow="2"
     inkscape:zoom="0.35"
     inkscape:cx="610.9235"
     inkscape:cy="284.36296"
     inkscape:document-units="mm"
     inkscape:current-layer="layer1"
     showgrid="false"
     inkscape:window-width="1366"
     inkscape:window-height="705"
     inkscape:window-x="-8"
     inkscape:window-y="-8"
     inkscape:window-maximized="1" />
  <metadata
     id="metadata4543">
    <rdf:RDF>
      <cc:Work
         rdf:about="">
        <dc:format>image/svg+xml</dc:format>
        <dc:type
           rdf:resource="http://purl.org/dc/dcmitype/StillImage" />
        <dc:title />
      </cc:Work>
    </rdf:RDF>
  </metadata>
  <g
     inkscape:label="Layer 1"
     inkscape:groupmode="layer"
     id="layer1"
     transform="translate(8.7499895,-94.5)">
    <path
       sodipodi:type="inkscape:offset"
       inkscape:radius="0"
       inkscape:original="M 37.794922 0 A 4.7248817 4.7248817 0 0 0 33.070312 4.7246094 L 33.070312 42.519531 L 42.519531 42.519531 L 42.519531 9.4492188 L 297.63867 9.4492188 L 297.63867 42.519531 L 307.08594 42.519531 L 307.08594 9.4492188 L 675.58984 9.4492188 L 675.58984 188.97656 L 307.08594 188.97656 L 307.08594 155.90625 L 297.63867 155.90625 L 297.63867 193.70117 L 297.63867 212.98633 L 307.08594 212.98633 L 307.08594 198.42578 L 680.31445 198.42578 A 4.7248817 4.7248817 0 0 0 685.03906 193.70117 L 685.03906 4.7246094 A 4.7248817 4.7248817 0 0 0 680.31445 0 L 302.36133 0 L 37.794922 0 z M 33.070312 155.90625 L 33.070312 382.76562 L 33.070312 571.56445 L 33.070312 571.6543 A 4.7248817 4.7248817 0 0 0 37.794922 576.37891 L 302.36133 576.37891 A 4.7248817 4.7248817 0 0 0 307.08594 571.6543 L 307.08594 571.56445 L 307.08594 382.76562 L 307.08594 382.58789 L 307.08594 269.38086 L 307.08594 250.78125 L 297.63867 250.78125 L 297.63867 264.56641 L 189.09375 264.56641 C 188.13799 264.56641 187.18031 264.80486 186.23047 265.49609 C 185.28062 266.18752 184.25195 267.61529 184.25195 269.38086 L 184.25195 307.08594 L 193.70117 307.08594 L 193.70117 274.01562 L 297.63867 274.01562 L 297.63867 377.95312 L 193.70117 377.95312 L 193.70117 344.88281 L 184.25195 344.88281 L 184.25195 377.95312 L 151.18164 377.95312 L 151.18164 387.40234 L 297.63867 387.40234 L 297.63867 566.92969 L 42.519531 566.92969 L 42.519531 387.40234 L 75.589844 387.40234 L 75.589844 377.95312 L 42.519531 377.95312 L 42.519531 155.90625 L 33.070312 155.90625 z M 831.49609 188.97656 A 4.7248817 4.7248817 0 0 0 826.77148 193.70117 L 826.77148 193.78906 L 826.77148 382.58789 L 826.77148 458.26758 L 836.2207 458.26758 L 836.2207 387.40234 L 982.67773 387.40234 L 982.67773 377.95312 L 836.2207 377.95312 L 836.2207 198.42578 L 1091.3379 198.42578 L 1091.3379 377.95312 L 1058.2676 377.95312 L 1058.2676 387.40234 L 1091.3379 387.40234 L 1091.3379 642.51953 L 1058.2676 642.51953 L 1058.2676 651.96875 L 1091.3379 651.96875 L 1091.3379 755.90625 L 987.40234 755.90625 L 987.40234 651.96875 L 1020.4727 651.96875 L 1020.4727 642.51953 L 982.79492 642.51953 C 981.83915 642.51953 980.88147 642.75798 979.93164 643.44922 C 978.98181 644.14065 977.95313 645.56646 977.95312 647.33203 L 977.95312 755.90625 L 836.2207 755.90625 L 836.2207 685.03906 L 826.77148 685.03906 L 826.77148 755.90625 L 458.26758 755.90625 L 458.26758 722.83398 L 448.81836 722.83398 L 448.81836 760.63086 A 4.7248817 4.7248817 0 0 0 453.54297 765.35352 L 831.49609 765.35352 L 1096.0625 765.35352 A 4.7248817 4.7248817 0 0 0 1100.7871 760.63086 L 1100.7871 760.54102 L 1100.7871 647.33203 L 1100.7871 382.58789 L 1100.7871 193.78906 L 1100.7871 193.70117 A 4.7248817 4.7248817 0 0 0 1096.0625 188.97656 L 831.49609 188.97656 z M 453.66211 302.36133 C 452.70634 302.36133 451.74668 302.60173 450.79688 303.29297 C 449.84704 303.9844 448.81836 305.41021 448.81836 307.17578 L 448.81836 382.67773 L 458.26758 382.67773 L 458.26758 311.81055 L 562.20508 311.81055 L 562.20508 344.88281 L 571.6543 344.88281 L 571.6543 311.81055 L 675.58984 311.81055 L 675.58984 415.74805 L 571.6543 415.74805 L 571.6543 382.67773 L 562.20508 382.67773 L 562.20508 420.38477 C 562.20508 422.15033 563.23376 423.57615 564.18359 424.26758 C 565.13343 424.959 566.0911 425.19727 567.04688 425.19727 L 675.58984 425.19727 L 675.58984 491.33789 L 642.51953 491.33789 L 642.51953 500.78711 L 680.19727 500.78711 C 681.15303 500.78711 682.11071 500.54866 683.06055 499.85742 C 684.01038 499.166 685.03906 497.74018 685.03906 495.97461 L 685.03906 420.38477 L 685.03906 307.17578 C 685.03906 305.41021 684.01038 303.9844 683.06055 303.29297 C 682.11071 302.60154 681.15303 302.36133 680.19727 302.36133 L 453.66211 302.36133 z M 448.81836 458.26758 L 448.81836 495.97461 C 448.81836 497.74018 449.84703 499.166 450.79688 499.85742 C 451.74669 500.54885 452.70634 500.78711 453.66211 500.78711 L 604.72461 500.78711 L 604.72461 491.33789 L 458.26758 491.33789 L 458.26758 458.26758 L 448.81836 458.26758 z M 826.77148 496.0625 L 826.77148 566.92969 L 453.54297 566.92969 A 4.7248817 4.7248817 0 0 0 448.81836 571.6543 L 448.81836 609.44922 L 458.26758 609.44922 L 458.26758 576.37891 L 826.77148 576.37891 L 826.77148 647.24414 L 836.2207 647.24414 L 836.2207 571.6543 L 836.2207 496.0625 L 826.77148 496.0625 z "
       style="color:#000000;font-style:normal;font-variant:normal;font-weight:normal;font-stretch:normal;font-size:medium;line-height:normal;font-family:sans-serif;font-variant-ligatures:normal;font-variant-position:normal;font-variant-caps:normal;font-variant-numeric:normal;font-variant-alternates:normal;font-feature-settings:normal;text-indent:0;text-align:start;text-decoration:none;text-decoration-line:none;text-decoration-style:solid;text-decoration-color:#000000;letter-spacing:normal;word-spacing:normal;text-transform:none;writing-mode:lr-tb;direction:ltr;text-orientation:mixed;dominant-baseline:auto;baseline-shift:baseline;text-anchor:start;white-space:normal;shape-padding:0;clip-rule:nonzero;display:inline;overflow:visible;visibility:visible;opacity:1;isolation:auto;mix-blend-mode:normal;color-interpolation:sRGB;color-interpolation-filters:linearRGB;solid-color:#000000;solid-opacity:1;vector-effect:none;fill:#1a1a1a;fill-opacity:1;fill-rule:nonzero;stroke:none;stroke-width:9.44881916;stroke-linecap:round;stroke-linejoin:round;stroke-miterlimit:4;stroke-dasharray:none;stroke-dashoffset:0;stroke-opacity:1;paint-order:markers fill stroke;color-rendering:auto;image-rendering:auto;shape-rendering:auto;text-rendering:auto;enable-background:accumulate"
       id="path4520"
       d="m 37.794922,0 a 4.7248817,4.7248817 0 0 0 -4.72461,4.7246094 V 42.519531 h 9.449219 V 9.4492188 H 297.63867 V 42.519531 h 9.44727 V 9.4492188 h 368.5039 V 188.97656 h -368.5039 v -33.07031 h -9.44727 v 37.79492 19.28516 h 9.44727 v -14.56055 h 373.22851 a 4.7248817,4.7248817 0 0 0 4.72461,-4.72461 V 4.7246094 A 4.7248817,4.7248817 0 0 0 680.31445,0 H 302.36133 Z m -4.72461,155.90625 v 226.85937 188.79883 0.0899 a 4.7248817,4.7248817 0 0 0 4.72461,4.72461 H 302.36133 a 4.7248817,4.7248817 0 0 0 4.72461,-4.72461 v -0.0899 -188.79883 -0.17773 -113.20703 -18.59961 h -9.44727 v 13.78516 H 189.09375 c -0.95576,0 -1.91344,0.23845 -2.86328,0.92968 -0.94985,0.69143 -1.97852,2.1192 -1.97852,3.88477 v 37.70508 h 9.44922 v -33.07032 h 103.9375 v 103.9375 h -103.9375 v -33.07031 h -9.44922 v 33.07031 h -33.07031 v 9.44922 H 297.63867 V 566.92969 H 42.519531 V 387.40234 h 33.070313 v -9.44922 H 42.519531 V 155.90625 Z m 798.425778,33.07031 a 4.7248817,4.7248817 0 0 0 -4.72461,4.72461 v 0.0879 188.79883 75.67969 h 9.44922 v -70.86524 h 146.45703 v -9.44922 H 836.2207 V 198.42578 h 255.1172 v 179.52734 h -33.0703 v 9.44922 h 33.0703 v 255.11719 h -33.0703 v 9.44922 h 33.0703 v 103.9375 H 987.40234 v -103.9375 h 33.07036 v -9.44922 h -37.67778 c -0.95577,0 -1.91345,0.23845 -2.86328,0.92969 -0.94983,0.69143 -1.97851,2.11724 -1.97852,3.88281 V 755.90625 H 836.2207 v -70.86719 h -9.44922 v 70.86719 h -368.5039 v -33.07227 h -9.44922 v 37.79688 a 4.7248817,4.7248817 0 0 0 4.72461,4.72266 h 377.95312 264.56641 a 4.7248817,4.7248817 0 0 0 4.7246,-4.72266 v -0.0898 -113.20899 -264.74414 -188.79883 -0.0879 a 4.7248817,4.7248817 0 0 0 -4.7246,-4.72461 z M 453.66211,302.36133 c -0.95577,0 -1.91543,0.2404 -2.86523,0.93164 -0.94984,0.69143 -1.97852,2.11724 -1.97852,3.88281 v 75.50195 h 9.44922 v -70.86718 h 103.9375 v 33.07226 h 9.44922 v -33.07226 h 103.93554 v 103.9375 H 571.6543 v -33.07032 h -9.44922 v 37.70704 c 0,1.76556 1.02868,3.19138 1.97851,3.88281 0.94984,0.69142 1.90751,0.92969 2.86329,0.92969 h 108.54296 v 66.14062 h -33.07031 v 9.44922 h 37.67774 c 0.95576,0 1.91344,-0.23845 2.86328,-0.92969 0.94983,-0.69142 1.97851,-2.11724 1.97851,-3.88281 V 420.38477 307.17578 c 0,-1.76557 -1.02868,-3.19138 -1.97851,-3.88281 -0.94984,-0.69143 -1.90752,-0.93164 -2.86328,-0.93164 z m -4.84375,155.90625 v 37.70703 c 0,1.76557 1.02867,3.19139 1.97852,3.88281 0.94981,0.69143 1.90946,0.92969 2.86523,0.92969 h 151.0625 v -9.44922 H 458.26758 v -33.07031 z m 377.95312,37.79492 v 70.86719 H 453.54297 a 4.7248817,4.7248817 0 0 0 -4.72461,4.72461 v 37.79492 h 9.44922 v -33.07031 h 368.5039 v 70.86523 h 9.44922 V 571.6543 496.0625 Z"
       transform="matrix(0.26458333,0,0,0.26458333,-8.7499895,94.5)" />
    <path
       inkscape:connector-curvature="0"
       style="color:#000000;font-style:normal;font-variant:normal;font-weight:normal;font-stretch:normal;font-size:medium;line-height:normal;font-family:sans-serif;font-variant-ligatures:normal;font-variant-position:normal;font-variant-caps:normal;font-variant-numeric:normal;font-variant-alternates:normal;font-feature-settings:normal;text-indent:0;text-align:start;text-decoration:none;text-decoration-line:none;text-decoration-style:solid;text-decoration-color:#000000;letter-spacing:normal;word-spacing:normal;text-transform:none;writing-mode:lr-tb;direction:ltr;text-orientation:mixed;dominant-baseline:auto;baseline-shift:baseline;text-anchor:start;white-space:normal;shape-padding:0;clip-rule:nonzero;display:inline;overflow:visible;visibility:visible;opacity:1;isolation:auto;mix-blend-mode:normal;color-interpolation:sRGB;color-interpolation-filters:linearRGB;solid-color:#000000;solid-opacity:1;vector-effect:none;fill:#1a1a1a;fill-opacity:1;fill-rule:nonzero;stroke:none;stroke-width:2.5;stroke-linecap:round;stroke-linejoin:round;stroke-miterlimit:4;stroke-dasharray:none;stroke-dashoffset:0;stroke-opacity:1;paint-order:markers fill stroke;color-rendering:auto;image-rendering:auto;shape-rendering:auto;text-rendering:auto;enable-background:accumulate"
       d="m 1.249917,93.841124 c -0.99937311,5.7e-5 -1.90886981,0.909555 -1.90892751,1.908927 v 9.999899 a 0.65874254,0.65874254 0 0 0 0.65887439518,0.65888 H 2.4999698 a 0.65874254,0.65874254 0 0 0 0.6588746,-0.65888 V 97.658979 H 69.341368 v 8.090971 a 0.65874254,0.65874254 0 0 0 0.658873,0.65888 h 2.499591 a 0.65874254,0.65874254 0 0 0 0.658873,-0.65888 V 97.658979 H 169.34095 V 143.84117 H 73.158705 v -8.09098 a 0.65874254,0.65874254 0 0 0 -0.658873,-0.65887 h -2.499591 a 0.65874254,0.65874254 0 0 0 -0.658873,0.65887 v 9.9999 5.10254 a 0.65874254,0.65874254 0 0 0 0.658873,0.65887 h 2.499591 a 0.65874254,0.65874254 0 0 0 0.658873,-0.65887 v -3.19361 h 98.091175 c 0.99937,-5e-5 1.90887,-0.90955 1.90892,-1.90893 V 95.750051 c -5e-5,-0.999372 -0.90955,-1.90887 -1.90892,-1.908927 H 71.249779 Z M -1.3611482e-4,135.09132 A 0.65874254,0.65874254 0 0 0 -0.65901051,135.75019 v 60.02321 49.95302 0.0238 c 5.74e-5,0.99937 0.9095544,1.90886 1.90892751,1.90892 h 69.999862 c 0.999373,-6e-5 1.908868,-0.90955 1.908926,-1.90892 v -0.0238 -49.95302 -0.047 -29.95269 -4.92115 a 0.65874254,0.65874254 0 0 0 -0.658873,-0.65887 h -2.499591 a 0.65874254,0.65874254 0 0 0 -0.658873,0.65887 v 2.98845 H 41.281065 c -0.362432,0 -0.781794,0.10764 -1.145151,0.37207 -0.417187,0.30369 -0.794782,0.83765 -0.794782,1.56063 v 9.97613 a 0.65874254,0.65874254 0 0 0 0.658873,0.65888 h 2.500106 a 0.65874254,0.65874254 0 0 0 0.658876,-0.65888 v -8.09097 h 26.182381 v 26.18235 H 43.158987 v -8.09098 a 0.65874254,0.65874254 0 0 0 -0.658876,-0.65888 h -2.500106 a 0.65874254,0.65874254 0 0 0 -0.658873,0.65888 v 8.09098 h -8.09098 a 0.65874254,0.65874254 0 0 0 -0.658873,0.65887 v 2.50011 a 0.65874254,0.65874254 0 0 0 0.658873,0.65887 h 38.091216 v 46.18219 H 3.1588444 v -46.18219 h 8.0909786 a 0.65874254,0.65874254 0 0 0 0.658875,-0.65887 v -2.50011 a 0.65874254,0.65874254 0 0 0 -0.658875,-0.65887 H 3.1588444 V 135.75019 A 0.65874254,0.65874254 0 0 0 2.4999698,135.09132 Z M 211.25002,143.84117 c -0.99937,6e-5 -1.90887,0.90955 -1.90893,1.90892 v 0.0233 49.95303 20.02358 a 0.65874254,0.65874254 0 0 0 0.65888,0.65887 h 2.5001 a 0.65874254,0.65874254 0 0 0 0.65888,-0.65887 v -18.09089 h 38.09121 a 0.65874254,0.65874254 0 0 0 0.65888,-0.65887 v -2.50011 a 0.65874254,0.65874254 0 0 0 -0.65888,-0.65887 h -38.09121 v -46.1822 h 66.18201 v 46.1822 h -8.09099 a 0.65874254,0.65874254 0 0 0 -0.65889,0.65887 v 2.50011 a 0.65874254,0.65874254 0 0 0 0.65889,0.65887 h 8.09099 v 66.18201 h -8.09099 a 0.65874254,0.65874254 0 0 0 -0.65889,0.65887 v 2.50011 a 0.65874254,0.65874254 0 0 0 0.65889,0.65887 h 8.09099 v 26.18239 h -26.18187 v -26.18239 h 8.09099 a 0.65874254,0.65874254 0 0 0 0.65886,-0.65887 v -2.50011 a 0.65874254,0.65874254 0 0 0 -0.65886,-0.65887 h -9.96891 c -0.36244,0 -0.7818,0.10763 -1.14515,0.37207 a 0.65874254,0.65874254 0 0 0 0,5.3e-4 c -0.4167,0.30334 -0.79478,0.83661 -0.79479,1.55959 v 28.06805 h -36.18228 v -18.09141 h -3.81786 v 18.09141 h -96.18224 v -8.0915 a 0.65874254,0.65874254 0 0 0 -0.65888,-0.65888 h -2.5001 a 0.65874254,0.65874254 0 0 0 -0.65888,0.65888 v 10.00042 a 0.65874254,0.65874254 0 0 0 0,5.3e-4 c 5.3e-4,0.99911 0.90982,1.90784 1.90893,1.9079 h 100.0001 69.99986 c 0.99912,-6e-5 1.90846,-0.90879 1.90891,-1.9079 a 0.65874254,0.65874254 0 0 0 0,-5.3e-4 v -0.0238 -29.95321 -70.04689 -49.95302 -0.0233 c -5e-5,-0.99937 -0.90953,-1.90887 -1.90891,-1.90892 z m -99.96858,29.99972 c -0.36333,0 -0.78243,0.10824 -1.14566,0.37258 a 0.65874254,0.65874254 0 0 0 0,5.3e-4 c -0.41671,0.30334 -0.79478,0.83661 -0.79479,1.5596 v 19.97656 a 0.65874254,0.65874254 0 0 0 0.65888,0.65887 h 2.5001 a 0.65874254,0.65874254 0 0 0 0.65888,-0.65887 v -18.09141 h 26.18238 v 8.0915 a 0.65874254,0.65874254 0 0 0 0.65888,0.65888 h 2.5001 a 0.65874254,0.65874254 0 0 0 0.65887,-0.65888 v -8.0915 h 26.18187 v 26.18239 h -26.18187 v -8.09098 a 0.65874254,0.65874254 0 0 0 -0.65887,-0.65888 h -2.5001 a 0.65874254,0.65874254 0 0 0 -0.65888,0.65888 v 9.97665 c 0,0.72298 0.37808,1.25626 0.79478,1.55959 a 0.65874254,0.65874254 0 0 0 0,5.3e-4 c 0.36342,0.26454 0.7828,0.37207 1.14515,0.37207 h 28.05979 v 16.18196 h -8.09098 a 0.65874254,0.65874254 0 0 0 -0.65887,0.65888 v 2.5001 a 0.65874254,0.65874254 0 0 0 0.65887,0.65888 h 9.9689 c 0.36243,0 0.78179,-0.10764 1.14515,-0.37207 0.41671,-0.30334 0.79478,-0.83713 0.79478,-1.56011 V 205.7268 175.77359 c 0,-0.72299 -0.37808,-1.25626 -0.79478,-1.5596 -0.36294,-0.2642 -0.78191,-0.3731 -1.14515,-0.3731 z m -1.28157,41.25019 a 0.65874254,0.65874254 0 0 0 -0.65888,0.65888 v 9.97665 c 10e-6,0.72281 0.37818,1.25622 0.79479,1.55959 0.36376,0.26481 0.78332,0.37259 1.14566,0.37259 h 39.96862 a 0.65874254,0.65874254 0 0 0 0.65888,-0.65887 v -2.50011 a 0.65874254,0.65874254 0 0 0 -0.65888,-0.65887 h -38.09121 v -8.09098 a 0.65874254,0.65874254 0 0 0 -0.65888,-0.65888 z m 100.0001,9.99991 a 0.65874254,0.65874254 0 0 0 -0.65888,0.65887 v 18.0914 h -98.09117 c -0.99937,6e-5 -1.90887,0.90956 -1.90893,1.90893 v 9.99991 a 0.65874254,0.65874254 0 0 0 0.65888,0.65887 h 2.5001 a 0.65874254,0.65874254 0 0 0 0.65888,-0.65887 v -8.09098 h 96.18224 v 18.09089 h 3.81786 v -19.99982 -20.00033 a 0.65874254,0.65874254 0 0 0 -0.65888,-0.65887 z"
       id="path4520-5" />
  </g>
</svg>
